<svg xmlns="http://www.w3.org/2000/svg" width="900" height="900" viewBox="0 0 900 900" fill="none">
  <rect width="900" height="900" fill="#0F1E2D"/>
  <g opacity="0.24">
    <circle cx="126" cy="140" r="52" fill="#1E364C"/>
    <circle cx="330" cy="212" r="22" fill="#28435D"/>
    <circle cx="590" cy="168" r="60" fill="#1A3043"/>
    <circle cx="790" cy="260" r="34" fill="#28435D"/>
    <circle cx="740" cy="562" r="86" fill="#1A3043"/>
    <circle cx="492" cy="690" r="44" fill="#28435D"/>
    <circle cx="192" cy="620" r="72" fill="#1E364C"/>
    <circle cx="102" cy="420" r="28" fill="#28435D"/>
  </g>
  <g opacity="0.12" stroke="#7EB3D6" stroke-width="2">
    <path d="M0 120C160 90 250 160 380 150C580 132 680 58 900 100"/>
    <path d="M0 420C210 390 280 468 520 446C698 430 760 360 900 380"/>
    <path d="M0 760C180 720 310 820 470 790C670 750 760 690 900 708"/>
  </g>
</svg>
